<svg xmlns="http://www.w3.org/2000/svg" viewBox="0 0 32 32">
  <circle cx="16" cy="16" r="16" fill="#012169"/>
  <g fill="#FFF">
    <path d="m32,5.333H21.333v-5.333h-10.667v5.333H0v5.333h10.667v5.333h10.667v-5.333h10.667v-5.333z"/>
    <path d="m13.867,17.6L4.267,27.2c.8,.533,1.6,1.067,2.533,1.467L15.467,20c.133-.133,.133-.4,0-.533-.133-.133-.267-.133-.4,0l-1.2,1.2-.533-.533,1.2-1.2c.133-.133,.133-.4,0-.533s-.4-.133-.533,0l-1.2,1.2-.533-.533,1.2-1.2c.133-.133,.133-.4,0-.533s-.4-.133-.533,0Z"/>
    <path d="m27.733,4.8L18.133,14.4c-.133,.133-.133,.4,0,.533s.4,.133,.533,0l1.2-1.2,.533,.533-1.2,1.2c-.133,.133-.133,.4,0,.533s.4,.133,.533,0l1.2-1.2,.533,.533-1.2,1.2c-.133,.133-.133,.4,0,.533s.4,.133,.533,0l8.667-8.667c-.533-.933-1.067-1.733-1.6-2.533Z"/>
  </g>
  <g fill="#C8102E">
    <path d="m32,12h-12V0h-8v12H0v8h12v12h8v-12h12v-8z"/>
    <path d="m22.4,14.133L32,4.533v-1.067l-8.533,8.533h-1.067v2.133Z"/>
    <path d="m9.6,14.133H8.533L0,4.533v1.067l8.533,8.533h1.067v-2.133Z"/>
    <path d="m9.6,17.867v2.133H8.533L0,27.467v-1.067l8.533-8.533h1.067Z"/>
    <path d="m22.4,17.867h1.067L32,27.467v1.067l-8.533-8.533h-1.067v-2.133Z"/>
  </g>
</svg>